<svg width="44" height="22" viewBox="0 0 44 22" fill="none" xmlns="http://www.w3.org/2000/svg">
<path d="M0 0.191406H43.989V21.1914H0V0.191406Z" fill="#808080"/>
<path d="M9.06895 6.62433C9.49231 6.48176 9.94388 6.40572 10.4124 6.40572C12.4633 6.40572 14.1755 7.87707 14.5669 9.83316L17.4739 9.23436C16.8078 5.91146 13.8989 3.40979 10.4124 3.40979C9.61272 3.40979 8.84693 3.54096 8.12817 3.78428L9.06895 6.62433Z" fill="#323238"/>
<path d="M5.63898 16.1405L7.60522 13.8954C6.72841 13.1103 6.17523 11.964 6.17523 10.6866C6.17523 9.41105 6.72841 8.26476 7.60522 7.48156L5.63898 5.23462C4.14879 6.5691 3.20801 8.51759 3.20801 10.6866C3.20801 12.8575 4.14879 14.806 5.63898 16.1405Z" fill="#323238"/>
<path d="M14.5669 11.5459C14.1736 13.5001 12.4633 14.9695 10.4143 14.9695C9.94388 14.9695 9.49042 14.8935 9.06895 14.749L8.12817 17.5929C8.84693 17.8343 9.61461 17.9655 10.4143 17.9655C13.897 17.9655 16.8041 15.4676 17.4739 12.1485L14.5669 11.5459Z" fill="#323238"/>
<path d="M22.5378 12.1064C22.4418 11.9505 22.3139 11.7015 22.2349 11.5171C21.7739 10.4374 21.7532 9.3196 22.1408 8.24745C22.5679 7.07075 23.3845 6.1716 24.4401 5.71156C25.7666 5.13557 27.2323 5.24773 28.5042 6.01001C29.3114 6.47765 29.8834 7.20002 30.3181 8.22274C30.3726 8.35391 30.4215 8.49268 30.4705 8.61244L22.5378 12.1064ZM25.187 7.44715C24.2444 7.85585 23.7589 8.74931 23.8605 9.79484L27.8495 8.05926C27.1627 7.24564 26.2708 6.97571 25.187 7.44715ZM28.3462 11.2225C28.3443 11.2225 28.3443 11.2244 28.3443 11.2244L28.2615 11.1673C28.0226 11.557 27.6519 11.8745 27.1834 12.0798C26.2915 12.4714 25.4655 12.3707 24.8709 11.8441L24.8164 11.9277C24.8164 11.9277 24.8164 11.9258 24.8145 11.9258L23.8022 13.4561C24.0543 13.6329 24.3234 13.7812 24.6056 13.9009C25.7233 14.3705 26.8673 14.3477 27.9943 13.8534C28.8091 13.496 29.4488 12.9524 29.8853 12.2623L28.3462 11.2225ZM33.242 3.46082V11.9657L34.5516 12.5018L33.8084 14.2545L32.3633 13.6462C32.0397 13.5036 31.8177 13.2869 31.6521 13.0417C31.4922 12.7927 31.3736 12.4486 31.3736 11.9886V3.46082H33.242ZM36.6326 9.80055C36.6326 9.07628 36.9506 8.42615 37.4511 7.98512L36.1076 6.47195C35.1969 7.28556 34.6231 8.47367 34.6231 9.79674C34.6212 11.1217 35.1951 12.3117 36.1039 13.1253L37.4454 11.6122C36.9468 11.1692 36.6326 10.5229 36.6326 9.80055ZM39.0184 12.2129C38.755 12.2129 38.4991 12.1673 38.262 12.0874L37.6204 14.0131C38.0588 14.1614 38.5273 14.2431 39.0165 14.2431C41.1427 14.245 42.917 12.7204 43.3291 10.6959L41.3572 10.2891C41.1333 11.3898 40.1718 12.2148 39.0184 12.2129ZM39.024 5.35798C38.5367 5.35798 38.0682 5.43782 37.6298 5.5842L38.2658 7.51178C38.5047 7.43194 38.7587 7.38822 39.0222 7.38822C40.1774 7.39012 41.1408 8.21894 41.3591 9.3215L43.3309 8.9185C42.9264 6.89016 41.1521 5.35988 39.024 5.35798Z" fill="#808080"/>
</svg>
