<svg width="44" height="22" viewBox="0 0 44 22" fill="none" xmlns="http://www.w3.org/2000/svg">
<g clip-path="url(#clip0_2601_225)">
<path d="M12.0806 0.191406H7.52139C5.5068 0.295865 3.86009 1.1857 3.38462 3.02068C3.13669 3.97766 3.00025 5.02869 2.80638 6.02071C1.82081 11.0648 0.946893 16.248 0.00415039 21.1914H35.4995C38.2436 21.1914 40.1279 20.5555 40.637 18.1669C40.8735 17.0573 41.1001 15.8007 41.3264 14.5816C42.2086 9.82865 43.0916 5.07594 43.9953 0.191406H12.0806Z" fill="#808080"/>
<path d="M11.725 7.65478C11.9157 7.51073 12.1613 6.85472 11.8807 6.58159C11.7919 6.49513 11.6432 6.47003 11.4359 6.50848C11.2436 6.54409 11.133 6.61578 11.0578 6.72801C10.9371 6.90842 10.8263 7.45268 11.0134 7.65487C11.1956 7.85167 11.6037 7.74635 11.725 7.65478ZM9.01172 6.58159C8.87511 7.55373 8.72122 8.50692 8.56691 9.45964C7.57615 9.4711 6.56458 9.51324 5.60898 9.43521C5.78946 8.50313 5.91891 7.51499 6.09827 6.58159H5.03074C4.64862 8.95923 4.30095 11.3748 3.87427 13.7036H4.96407C5.13497 12.5091 5.2949 11.3023 5.52003 10.167C6.44921 10.1419 7.56285 10.0981 8.45577 10.1914C8.27166 11.3717 8.04921 12.5097 7.87753 13.7036H8.96734C9.3176 11.2908 9.68642 8.89871 10.1239 6.58159H9.01172ZM24.4242 8.63041C23.5763 8.25482 22.9096 8.88952 22.6005 9.48407C22.6706 9.21957 22.6995 8.90979 22.7563 8.63041H21.9111C21.7045 10.3876 21.4 12.0374 21.1105 13.7036H22.0669C22.201 12.7146 22.2588 11.3814 22.5561 10.4353C22.7938 9.67926 23.4157 9.03518 24.3131 9.38653C24.3256 9.10763 24.3984 8.89473 24.4242 8.63041ZM24.9579 12.5085C24.8697 12.2587 24.847 11.8464 24.869 11.5328C24.9184 10.8281 25.1526 9.97009 25.514 9.58162C26.0127 9.0455 26.9972 9.13424 27.7825 9.4353C27.8068 9.14504 27.86 8.88611 27.8938 8.60608C26.6059 8.37538 25.3838 8.51895 24.7358 9.26465C24.1013 9.99462 23.6856 11.6724 23.9794 12.7281C24.3235 13.9634 25.8663 14.0305 27.1154 13.5574C27.1706 13.3091 27.1999 13.0322 27.2488 12.7769C26.5661 13.1657 25.2612 13.3678 24.9579 12.5085ZM35.7 8.65475C34.8547 8.19127 34.151 8.96898 33.8763 9.43521C33.9545 9.19599 33.959 8.8756 34.0319 8.63032H33.1868C32.9589 10.3723 32.6843 12.063 32.364 13.7035H33.3426C33.3488 13.0311 33.4692 12.5337 33.5649 11.8744C33.7694 10.4663 34.0697 8.92229 35.5667 9.38644C35.6162 9.14835 35.6368 8.87825 35.7 8.65475ZM10.7464 8.63041C10.7205 8.63449 10.7223 8.66896 10.7242 8.70353C10.5134 10.4318 10.2282 12.0785 9.92355 13.7035H10.8799C11.1096 11.9636 11.3729 10.2606 11.7027 8.63032L10.7464 8.63041ZM19.1532 8.53287C18.4622 8.5913 17.8781 8.80931 17.463 9.28899C16.9538 9.87719 16.5416 11.1778 16.6624 12.3622C16.8347 14.0519 18.7531 13.9912 20.2875 13.5817C20.3137 13.2851 20.3791 13.0316 20.4209 12.7524C19.7889 13.0118 18.6914 13.3738 18.0411 12.9232C17.5503 12.5828 17.5474 11.7211 17.7075 10.972C18.7388 10.936 19.8106 10.9428 20.8434 10.972C20.9088 10.4411 21.0963 9.86223 20.9323 9.33785C20.7161 8.64557 19.9415 8.4662 19.1532 8.53287ZM20.065 10.3865H17.8187C17.8898 9.82018 18.3544 9.19769 19.0865 9.16701C19.7754 9.13812 20.2687 9.44439 20.065 10.3865ZM15.5281 8.63041C14.7187 8.29696 13.7323 8.695 13.3045 9.07363C13.3061 9.0903 13.2943 9.09257 13.2817 9.0938C13.289 9.08708 13.2969 9.08035 13.3045 9.07363C13.3045 9.07223 13.3043 9.07084 13.3041 9.06946C13.3113 8.90667 13.3635 8.79321 13.3708 8.63041H12.5479C12.205 11.1324 11.7983 13.5644 11.3692 15.9719H12.3255C12.464 15.0343 12.5553 14.0451 12.7481 13.167C12.9665 14.0906 14.3926 13.9141 14.9944 13.5573C16.236 12.8209 17.1936 9.31645 15.5281 8.63041ZM14.772 12.7524C14.2603 13.3467 13.0025 13.3378 12.9038 12.3377C12.8608 11.9026 13.0086 11.4464 13.0818 10.9963C13.1557 10.5407 13.2089 10.1035 13.2818 9.7036C13.7858 9.02874 15.2667 8.9472 15.417 10.0694C15.5473 11.0438 15.1956 12.2602 14.772 12.7524ZM39.2583 6.43528C39.1764 7.2234 39.0668 7.98132 38.9248 8.70353C36.579 7.88917 35.1404 9.78201 35.1663 12.1183C35.1714 12.5701 35.2423 13.0181 35.4998 13.3378C35.944 13.8884 37.2153 14.0203 37.8574 13.5572C37.9815 13.4676 38.1086 13.3045 38.1909 13.1914C38.2528 13.1063 38.351 12.8833 38.3689 12.9475C38.335 13.1949 38.2846 13.4243 38.28 13.7035H39.1474C39.3146 11.0738 39.8314 8.82768 40.2149 6.43518H39.2584V6.43528H39.2583ZM37.1233 13.1426C36.4796 13.1577 36.1595 12.7208 36.1447 11.9963C36.119 10.7274 36.6265 9.31777 37.6571 9.19134C38.1369 9.13253 38.4843 9.25489 38.8359 9.38653C38.5131 10.8118 38.6296 13.1072 37.1233 13.1426ZM28.8722 8.63041C28.8251 8.92021 28.7528 9.18244 28.6943 9.45964C29.2586 9.30442 31.0159 8.82863 31.1852 9.65473C31.2414 9.92918 31.1444 10.2208 31.074 10.4353C29.485 10.2702 28.1899 10.5597 27.8491 11.8011C27.621 12.6326 27.8747 13.4508 28.3607 13.6793C29.2967 14.1191 30.4352 13.6152 30.8293 12.9232C30.7884 13.1627 30.7496 13.4049 30.7628 13.7036H31.5856C31.5944 12.8393 31.709 12.1398 31.8302 11.3621C31.9335 10.6998 32.1279 10.0442 32.0971 9.45964C32.0263 8.121 30.0041 8.59452 28.8722 8.63041ZM30.429 12.728C29.9362 13.2571 28.5527 13.4074 28.6943 12.1426C28.8117 11.0921 29.8547 10.8689 30.9849 11.0205C30.9009 11.5952 30.8046 12.3248 30.429 12.728Z" fill="#808080"/>
</g>
<defs>
<clipPath id="clip0_2601_225">
<rect width="44" height="21" fill="white" transform="translate(0 0.191406)"/>
</clipPath>
</defs>
</svg>
